# xmcd CD database file
#
# Track frame offsets:
#	150
#	21740
#	42390
#	60612
#	93107
#	115665
#	136290
#	160402
#	180115
#	204150
#	226982
#	255367
#
# Disc length: 3619 seconds
#
# Revision: 0
# Processed by: cddbd v1.5.2PL0 Copyright (c) Steve Scherf et al.
# Submitted via: CDex 1.70beta2
#
DISCID=920e210c
DTITLE=Eric Clapton - Back Home
DYEAR=2005
DGENRE=Blues
TTITLE0=so tired
TTITLE1=say what you will
TTITLE2=im going left
TTITLE3=love dont love nobody
TTITLE4=revolutions
TTITLE5=love comes to everyone
TTITLE6=lost ando found
TTITLE7=piece of my heart
TTITLE8=one day
TTITLE9=one track mind
TTITLE10=run home to me
TTITLE11=back home
EXTD=YEAR: 2005
EXTT0=
EXTT1=
EXTT2=
EXTT3=
EXTT4=
EXTT5=
EXTT6=
EXTT7=
EXTT8=
EXTT9=
EXTT10=
EXTT11=
PLAYORDER=
